<?xml version="1.0" ?><svg height="24px" version="1.1" viewBox="0 0 24 24" width="24px" xmlns="http://www.w3.org/2000/svg" xmlns:sketch="http://www.bohemiancoding.com/sketch/ns" xmlns:xlink="http://www.w3.org/1999/xlink"><title/><desc/><defs/><g fill="none" fill-rule="evenodd" id="miu" stroke="none" stroke-width="1"><g id="Artboard-1" transform="translate(-467.000000, -299.000000)"><g id="slice" transform="translate(215.000000, 119.000000)"/><path d="M468.140488,305 C468.062898,305 468,305.057936 468,305.128791 L468,320.871209 C468,320.942338 468.06311,321 468.140488,321 L489.859512,321 C489.937102,321 490,320.942064 490,320.871209 L490,305.128791 C490,305.057662 489.93689,305 489.859512,305 L468.140488,305 Z M470,301 L470,302 L488,302 L488,301 L470,301 Z M469,303 L469,304 L489,304 L489,303 L469,303 Z" fill="#000000" id="editor-album-collection-glyph"/></g></g></svg>