<?xml version="1.0" ?><!DOCTYPE svg  PUBLIC '-//W3C//DTD SVG 1.1//EN'  'http://www.w3.org/Graphics/SVG/1.1/DTD/svg11.dtd'><svg enable-background="new 0 0 50 50" height="50px" id="Layer_1" version="1.1" viewBox="0 0 50 50" width="50px" xml:space="preserve" xmlns="http://www.w3.org/2000/svg" xmlns:xlink="http://www.w3.org/1999/xlink"><rect fill="none" height="50" width="50"/><circle cx="25" cy="24" fill="none" r="12" stroke="#000000" stroke-linecap="round" stroke-miterlimit="10" stroke-width="2"/><circle cx="25" cy="24" fill="none" r="8" stroke="#000000" stroke-linecap="round" stroke-miterlimit="10" stroke-width="2"/><path d="M47,10H37  c-1.469,0-2.484-4-4-4H17c-1.516,0-2.531,4-4,4H3c-1.104,0-2,0.896-2,2v27c0,1.104,0.896,2,2,2h44c1.104,0,2-0.896,2-2V12  C49,10.896,48.104,10,47,10z" fill="none" stroke="#000000" stroke-linecap="round" stroke-miterlimit="10" stroke-width="2"/><path d="M9,14c0,0-0.826,0-1,0c-1.104,0-2,0.896-2,2s0.896,2,2,2c0.174,0,0.826,0,1,0c1.104,0,2-0.896,2-2S10.104,14,9,14z"/></svg>