<svg xmlns="http://www.w3.org/2000/svg" width="79" height="12" viewBox="0 0 79 12">
  <path d="M2.5,1 C1.67157288,1 1,1.67157288 1,2.5 L1,9.5 C1,10.3284271 1.67157288,11 2.5,11 L76.5,11 C77.3284271,11 78,10.3284271 78,9.5 L78,2.5 C78,1.67157288 77.3284271,1 76.5,1 L2.5,1 Z M2.5,0 L76.5,0 C77.8807119,-2.77555756e-16 79,1.11928813 79,2.5 L79,9.5 C79,10.8807119 77.8807119,12 76.5,12 L2.5,12 C1.11928813,12 1.38777878e-16,10.8807119 0,9.5 L0,2.5 C-1.38777878e-16,1.11928813 1.11928813,2.77555756e-16 2.5,0 Z"/>
</svg>
