<?xml version="1.0" encoding="UTF-8"?>
<svg width="17px" height="13px" viewBox="0 0 17 13" version="1.1" xmlns="http://www.w3.org/2000/svg" xmlns:xlink="http://www.w3.org/1999/xlink">
    <!-- Generator: Sketch 46.2 (44496) - http://www.bohemiancoding.com/sketch -->
    <title>Shape</title>
    <desc>Created with Sketch.</desc>
    <defs></defs>
    <g id="Page-1" stroke="none" stroke-width="1" fill="none" fill-rule="evenodd">
        <g id="Artboard" transform="translate(-381.000000, -1048.000000)" fill-rule="nonzero" fill="#494B56">
            <g id="photo" transform="translate(372.000000, 1037.000000)">
                <path d="M24.0705329,13.1065831 L21.5626959,13.1065831 L21.3369906,12.2037618 L21.3119122,12.1034483 C21.1112853,11.4514107 20.5094044,11 19.8322884,11 L15.1426332,11 C14.4655172,11 13.8636364,11.4514107 13.6630094,12.1034483 L13.4122257,13.1065831 L10.9043887,13.1065831 C10.1269592,13.1065831 9.5,13.7586207 9.5,14.5109718 L9.5,22.2100313 C9.5,22.9874608 10.1520376,23.6144201 10.9043887,23.6144201 L24.0956113,23.6144201 C24.8730408,23.6144201 25.5,22.9623824 25.5,22.2100313 L25.5,14.5360502 C25.5,13.7586207 24.8479624,13.1065831 24.0705329,13.1065831 Z M24.7476489,22.2100313 C24.7476489,22.5611285 24.4467085,22.862069 24.0956113,22.862069 L10.9043887,22.862069 C10.5532915,22.862069 10.2523511,22.5611285 10.2523511,22.2100313 L10.2523511,14.5360502 C10.2523511,14.184953 10.5532915,13.8840125 10.9043887,13.8840125 L14.0141066,13.8840125 L14.3902821,12.3793103 L14.3902821,12.3040752 C14.515674,11.9780564 14.8166144,11.7774295 15.1426332,11.7774295 L19.8322884,11.7774295 C20.1583072,11.7774295 20.484326,12.0031348 20.5846395,12.3040752 L20.9858934,13.8840125 L24.0705329,13.8840125 C24.4467085,13.8840125 24.7476489,14.184953 24.7476489,14.5360502 L24.7476489,22.2100313 Z M17.4749216,14.4106583 C15.468652,14.4106583 13.838558,16.0407524 13.838558,18.0470219 C13.838558,20.0532915 15.468652,21.6833856 17.4749216,21.6833856 C19.4811912,21.6833856 21.1112853,20.0532915 21.1112853,18.0470219 C21.1112853,16.0407524 19.4811912,14.4106583 17.4749216,14.4106583 Z M17.4749216,20.9310345 C15.8949843,20.9310345 14.5909091,19.6269592 14.5909091,18.0470219 C14.5909091,16.4670846 15.8949843,15.1630094 17.4749216,15.1630094 C19.0548589,15.1630094 20.3589342,16.4670846 20.3589342,18.0470219 C20.3589342,19.6520376 19.0799373,20.9310345 17.4749216,20.9310345 Z" id="Shape"></path>
            </g>
        </g>
    </g>
</svg>