<?xml version="1.0" encoding="UTF-8"?>
<svg width="17px" height="12px" viewBox="0 0 17 12" version="1.1" xmlns="http://www.w3.org/2000/svg" xmlns:xlink="http://www.w3.org/1999/xlink">
    <!-- Generator: Sketch 46.2 (44496) - http://www.bohemiancoding.com/sketch -->
    <title>Rectangle 10</title>
    <desc>Created with Sketch.</desc>
    <defs></defs>
    <g id="Page-1" stroke="none" stroke-width="1" fill="none" fill-rule="evenodd">
        <g id="richtexteditor" transform="translate(-754.000000, -227.000000)" fill="#B1B4C1">
            <g id="text-edit" transform="translate(544.000000, 209.000000)">
                <path d="M214.5,23.5 L226.5,23.5 C226.776142,23.5 227,23.7238576 227,24 C227,24.2761424 226.776142,24.5 226.5,24.5 L214.5,24.5 C214.223858,24.5 214,24.2761424 214,24 C214,23.7238576 214.223858,23.5 214.5,23.5 Z M211,25 C210.447715,25 210,24.5522847 210,24 C210,23.4477153 210.447715,23 211,23 C211.552285,23 212,23.4477153 212,24 C212,24.5522847 211.552285,25 211,25 Z M214.5,18.5 L226.5,18.5 C226.776142,18.5 227,18.7238576 227,19 L227,19 C227,19.2761424 226.776142,19.5 226.5,19.5 L214.5,19.5 C214.223858,19.5 214,19.2761424 214,19 C214,18.7238576 214.223858,18.5 214.5,18.5 Z M211,20 C210.447715,20 210,19.5522847 210,19 C210,18.4477153 210.447715,18 211,18 C211.552285,18 212,18.4477153 212,19 C212,19.5522847 211.552285,20 211,20 Z M214.5,28.5 L226.5,28.5 C226.776142,28.5 227,28.7238576 227,29 C227,29.2761424 226.776142,29.5 226.5,29.5 L214.5,29.5 C214.223858,29.5 214,29.2761424 214,29 C214,28.7238576 214.223858,28.5 214.5,28.5 Z M211,30 C210.447715,30 210,29.5522847 210,29 C210,28.4477153 210.447715,28 211,28 C211.552285,28 212,28.4477153 212,29 C212,29.5522847 211.552285,30 211,30 Z" id="Rectangle-10"></path>
            </g>
        </g>
    </g>
</svg>