<?xml version="1.0" encoding="UTF-8"?>
<svg width="18px" height="15px" viewBox="0 0 18 15" version="1.1" xmlns="http://www.w3.org/2000/svg" xmlns:xlink="http://www.w3.org/1999/xlink">
    <!-- Generator: Sketch 46.2 (44496) - http://www.bohemiancoding.com/sketch -->
    <title>Rectangle 10</title>
    <desc>Created with Sketch.</desc>
    <defs></defs>
    <g id="Page-1" stroke="none" stroke-width="1" fill="none" fill-rule="evenodd">
        <g id="richtexteditor" transform="translate(-785.000000, -226.000000)" fill="#B1B4C1">
            <g id="text-edit" transform="translate(544.000000, 209.000000)">
                <path d="M245.925,23.5 L257.925,23.5 L257.925,23.5 C258.201142,23.5 258.425,23.7238576 258.425,24 C258.425,24.2761424 258.201142,24.5 257.925,24.5 L245.925,24.5 C245.648858,24.5 245.425,24.2761424 245.425,24 C245.425,23.7238576 245.648858,23.5 245.925,23.5 Z M243.2425,21 L242.3825,21 L242.3825,18.765 L241.8225,19.33 L241.3325,18.815 L242.4975,17.665 L243.2425,17.665 L243.2425,21 Z M245.925,18.5 L257.925,18.5 L257.925,18.5 C258.201142,18.5 258.425,18.7238576 258.425,19 L258.425,19 C258.425,19.2761424 258.201142,19.5 257.925,19.5 L245.925,19.5 L245.925,19.5 C245.648858,19.5 245.425,19.2761424 245.425,19 C245.425,18.7238576 245.648858,18.5 245.925,18.5 Z M243.7425,26 L241.1275,26 L241.1275,25.33 C242.5725,24.285 242.8425,24.055 242.8425,23.72 C242.8425,23.495 242.6275,23.375 242.3825,23.375 C242.0125,23.375 241.7325,23.515 241.4925,23.74 L241.0175,23.17 C241.3725,22.78 241.9025,22.615 242.3675,22.615 C243.1525,22.615 243.7175,23.055 243.7175,23.72 C243.7175,24.235 243.3525,24.67 242.5225,25.25 L243.7425,25.25 L243.7425,26 Z M245.925,28.5 L257.925,28.5 L257.925,28.5 C258.201142,28.5 258.425,28.7238576 258.425,29 C258.425,29.2761424 258.201142,29.5 257.925,29.5 L245.925,29.5 C245.648858,29.5 245.425,29.2761424 245.425,29 C245.425,28.7238576 245.648858,28.5 245.925,28.5 Z M242.38,31.06 C241.74,31.06 241.265,30.835 241,30.535 L241.435,29.95 C241.68,30.185 242.055,30.3 242.345,30.3 C242.715,30.3 242.905,30.16 242.905,29.975 C242.905,29.785 242.765,29.69 242.31,29.69 C242.165,29.69 241.91,29.695 241.86,29.7 L241.86,28.935 C241.925,28.94 242.185,28.94 242.31,28.94 C242.655,28.94 242.85,28.855 242.85,28.68 C242.85,28.47 242.61,28.375 242.29,28.375 C241.985,28.375 241.695,28.485 241.46,28.695 L241.045,28.155 C241.33,27.84 241.765,27.615 242.38,27.615 C243.23,27.615 243.705,27.98 243.705,28.53 C243.705,28.92 243.37,29.215 242.975,29.28 C243.33,29.315 243.76,29.59 243.76,30.07 C243.76,30.655 243.21,31.06 242.38,31.06 Z" id="Rectangle-10"></path>
            </g>
        </g>
    </g>
</svg>