<?xml version="1.0" encoding="UTF-8"?>
<svg width="23px" height="16px" viewBox="0 0 23 16" version="1.1" xmlns="http://www.w3.org/2000/svg" xmlns:xlink="http://www.w3.org/1999/xlink">
    <!-- Generator: Sketch 46.2 (44496) - http://www.bohemiancoding.com/sketch -->
    <title>Group 2</title>
    <desc>Created with Sketch.</desc>
    <defs></defs>
    <g id="Page-1" stroke="none" stroke-width="1" fill="none" fill-rule="evenodd">
        <g id="Artboard" transform="translate(-513.000000, -1048.000000)">
            <g id="button" transform="translate(507.000000, 1037.000000)">
                <g id="Group-2" transform="translate(7.000000, 12.000000)">
                    <path d="M12.7648838,3.00000442 L8.95440768,3.01699069 C8.79320151,3.017644 8.66008801,3.14340768 8.65012491,3.30428719 C8.57238009,4.56731384 7.81289814,5.52883433 7.11515472,6.59243572 C6.78637254,7.09353047 6.61161002,7.7292087 6.74505018,8.28305887 C6.87016054,8.80326318 7.25349477,9.19525386 7.88770303,9.32477412 L7.99223388,9.33898378 L7.99223388,13.0457457 L7.99043726,13.1533798 C7.99876706,13.4431262 8.10182794,13.6900804 8.29504668,13.8687628 C8.50851828,14.0662281 8.79385483,14.1439729 9.07396484,14.1439729 C9.37955424,14.1439729 9.69739336,14.1010173 9.9128249,13.8690895 C10.1240099,13.6418982 10.1609223,13.3129527 10.148836,12.9720841 L10.1445894,11.4416871 L10.2628399,11.4751697 C10.3435247,11.4895427 10.4256794,11.4962392 10.5071808,11.4962392 C10.6675703,11.4962392 10.82159,11.4839895 10.9605833,11.4457704 C11.1036599,11.406408 11.2380801,11.3376463 11.3460408,11.2213557 C11.3987963,11.1643537 11.4407719,11.1011452 11.4737645,11.0330369 L11.52064,10.8948601 L11.7370516,10.9559454 C11.8177363,10.9703183 11.8997277,10.9770149 11.9812291,10.9770149 C12.1416186,10.9770149 12.2956383,10.9647651 12.4346316,10.9265461 C12.5775449,10.8871837 12.711965,10.818422 12.8199258,10.7021314 C12.9256,10.5882908 12.9876652,10.4492974 13.0216377,10.2960944 L13.0240876,10.2781281 L13.0711265,10.2861313 C13.1233919,10.2918478 13.1761474,10.2946244 13.2289028,10.2946244 C13.5772845,10.2946244 13.8771574,10.2072431 14.0899756,9.92696981 C14.2740479,9.68442557 14.3599592,9.3324506 14.4324775,8.91628716 C14.7534199,6.82354689 13.2653252,4.63329894 13.0694932,3.26280151 C13.0477704,3.11155844 12.9177602,2.99918778 12.7648838,3.00000442 Z M12.5122131,3.61330651 L12.517603,3.6420525 C12.8543883,5.13423037 14.0999387,7.04453164 13.8279952,8.81714618 C13.7544969,9.23902615 13.6847553,9.44776119 13.6021106,9.55653861 C13.5482118,9.62758692 13.4703037,9.68213896 13.2289028,9.68213896 C13.1638976,9.68213896 13.1062423,9.67527912 13.0552836,9.66319274 L13.0459738,8.74168797 C13.0445038,8.57264199 12.9060004,8.43675189 12.7369545,8.43838518 C12.5679085,8.43985515 12.4320184,8.57835852 12.4336517,8.7474045 L12.4436148,9.81786573 C12.4552112,10.1504045 12.4024557,10.2516688 12.3712598,10.2853146 C12.3436571,10.3148773 12.2649323,10.3645294 11.9812291,10.3645294 C11.7762506,10.3645294 11.6496703,10.298871 11.5833585,10.215083 L11.5719255,9.26074897 C11.5704555,9.09170299 11.4319521,8.95581288 11.2629062,8.95744618 C11.0938602,8.95891614 10.9579701,9.09741952 10.9596034,9.2664655 L10.9697298,10.3367634 C10.9813262,10.6693022 10.9285708,10.7707298 10.8973748,10.8045389 C10.8697722,10.8341016 10.7907207,10.8837537 10.5071808,10.8837537 C10.3533244,10.8837537 10.2437304,10.8466779 10.1717021,10.7937592 L10.1427928,10.7659932 L10.1387095,9.231513 C10.1383829,9.06246702 10.0006961,8.92576027 9.83165017,8.92625025 C9.66260418,8.92657691 9.52589743,9.06426364 9.52638742,9.23330962 L9.53651385,12.9836805 C9.54811024,13.3171992 9.49568148,13.4181368 9.4641589,13.4522727 C9.43655622,13.4818353 9.3576681,13.5314875 9.07396484,13.5314875 C8.899039,13.5314875 8.7798085,13.4828153 8.71088347,13.4191168 C8.64881828,13.3616248 8.5918163,13.2601973 8.60406601,13.0646919 L8.60471932,13.0457457 L8.60471932,7.6127548 C8.60471932,7.44370882 8.46735925,7.30651208 8.2984766,7.30651208 C8.12943062,7.30651208 7.99223388,7.44370882 7.99223388,7.6127548 L7.99223388,8.7196385 L7.84932061,8.68174606 C7.538178,8.57427528 7.3951014,8.36652022 7.34054937,8.13965561 C7.25790466,7.79650044 7.36129221,7.3337881 7.62719255,6.9284044 C8.19672235,6.06030836 8.95146775,5.08849812 9.1918887,3.87643026 L9.2328844,3.62800616 L12.5122131,3.61330651 Z" id="Shape" fill="#494B56" transform="translate(10.588826, 8.571986) scale(1, -1) translate(-10.588826, -8.571986) "></path>
                    <path d="M16.1166801,8.89101696 L16.5514926,8.89101696 L16.5514926,8.89101696 C18.9182808,8.89101696 20.8369418,6.97235604 20.8369418,4.60556784 L20.8369418,4.60556784 L20.8369418,4.60556784 C20.8369418,2.23877964 18.9182808,0.320118716 16.5514926,0.320118716 L10.3739914,0.320118716 L4.50104839,0.320118716 L4.50104839,0.320118716 C2.13426019,0.320118716 0.215599267,2.23877964 0.215599267,4.60556784 L0.215599267,4.60556784 L0.215599267,4.60556784 C0.215599267,6.97235604 2.13426019,8.89101696 4.50104839,8.89101696 L4.77011847,8.89101696" id="Path-2" stroke="#494B56" stroke-width="0.8"></path>
                </g>
            </g>
        </g>
    </g>
</svg>