<?xml version="1.0" encoding="UTF-8"?>
<svg width="12px" height="6px" viewBox="0 0 12 6" version="1.1" xmlns="http://www.w3.org/2000/svg" xmlns:xlink="http://www.w3.org/1999/xlink">
    <!-- Generator: Sketch 46.2 (44496) - http://www.bohemiancoding.com/sketch -->
    <title>Shape</title>
    <desc>Created with Sketch.</desc>
    <defs></defs>
    <g id="Page-1" stroke="none" stroke-width="1" fill="none" fill-rule="evenodd">
        <g id="richtexteditor" transform="translate(-468.000000, -1114.000000)" fill-rule="nonzero" fill="#494B56">
            <g id="button-style" transform="translate(436.000000, 999.000000)">
                <g id="link" transform="translate(22.000000, 102.000000)">
                    <path d="M18.9854167,13 C20.4104167,13 21.5715278,14.1611111 21.5715278,15.5861111 L21.5715278,16.1138889 C21.5715278,17.5388889 20.4104167,18.7 18.9854167,18.7 L17.0722222,18.7 C15.6472222,18.7 14.4861111,17.5388889 14.4861111,16.1138889 L14.4861111,15.3222222 C14.4861111,15.0319444 14.7236111,14.7944444 15.0138889,14.7944444 C15.3041667,14.7944444 15.5416667,15.0319444 15.5416667,15.3222222 L15.5416667,16.1138889 C15.5416667,16.9583333 16.2277778,17.6444444 17.0722222,17.6444444 L18.9854167,17.6444444 C19.8298611,17.6444444 20.5159722,16.9583333 20.5159722,16.1138889 L20.5159722,15.5861111 C20.5159722,14.7416667 19.8298611,14.0555556 18.9854167,14.0555556 L17.6,14.0555556 C17.3097222,14.0555556 17.0722222,13.8180556 17.0722222,13.5277778 C17.0722222,13.2375 17.3097222,13 17.6,13 L18.9854167,13 Z M14.2354167,17.6444444 C14.5256944,17.6444444 14.7631944,17.8819444 14.7631944,18.1722222 C14.7631944,18.4625 14.5256944,18.7 14.2354167,18.7 L12.5861111,18.7 C11.1611111,18.7 10,17.5388889 10,16.1138889 L10,15.5861111 C10,14.1611111 11.1611111,13 12.5861111,13 L14.7631944,13 C16.1881944,13 17.3493056,14.1611111 17.3493056,15.5861111 L17.3493056,16.3777778 C17.3493056,16.6680556 17.1118056,16.9055556 16.8215278,16.9055556 C16.53125,16.9055556 16.29375,16.6680556 16.29375,16.3777778 L16.29375,15.5861111 C16.29375,14.7416667 15.6076389,14.0555556 14.7631944,14.0555556 L12.5861111,14.0555556 C11.7416667,14.0555556 11.0555556,14.7416667 11.0555556,15.5861111 L11.0555556,16.1138889 C11.0555556,16.9583333 11.7416667,17.6444444 12.5861111,17.6444444 L14.2354167,17.6444444 Z" id="Shape"></path>
                </g>
            </g>
        </g>
    </g>
</svg>