<?xml version="1.0" encoding="UTF-8"?>
<svg width="17px" height="13px" viewBox="0 0 17 13" version="1.1" xmlns="http://www.w3.org/2000/svg" xmlns:xlink="http://www.w3.org/1999/xlink">
    <!-- Generator: Sketch 46.2 (44496) - http://www.bohemiancoding.com/sketch -->
    <title>Group 3</title>
    <desc>Created with Sketch.</desc>
    <defs></defs>
    <g id="Page-1" stroke="none" stroke-width="1" fill="none" fill-rule="evenodd">
        <g id="Artboard" transform="translate(-561.000000, -1048.000000)" fill="#494B56">
            <g id="signature" transform="translate(552.000000, 1037.000000)">
                <g id="Group-3" transform="translate(9.000000, 11.000000)">
                    <path d="M8.41941047,7.58892149 C8.27622166,7.58892149 8.16167062,7.47437174 8.16167062,7.33118454 L8.16167062,6.15704951 C8.16167062,6.14273079 8.16167062,6.12841208 8.16167062,6.11409336 C8.7773825,5.61293816 9.16399228,4.85404601 9.16399228,4.00924154 L9.16399228,2.72055676 C9.16399228,1.21709118 7.9468874,0 6.4434049,0 C4.9399224,0 3.72281751,1.21709118 3.72281751,2.72055676 L3.72281751,4.00924154 C3.72281751,4.85404601 4.1094273,5.61293816 4.72513918,6.11409336 C4.72513918,6.12841208 4.72513918,6.14273079 4.72513918,6.15704951 L4.72513918,7.33118454 C4.72513918,7.47437174 4.61058813,7.58892149 4.46739932,7.58892149 C2.16205949,7.58892149 0.286286081,9.46467379 0.286286081,11.7699877 C0.286286081,12.2281867 0.658576987,12.6004734 1.11678118,12.6004734 L11.7557097,12.6004734 C12.2139139,12.6004734 12.5862048,12.2281867 12.5862048,11.7699877 C12.6005237,9.46467379 10.7247503,7.58892149 8.41941047,7.58892149 Z M4.58195037,4.00924154 L4.58195037,2.72055676 C4.58195037,1.68960894 5.41244547,0.859123188 6.4434049,0.859123188 C7.47436433,0.859123188 8.30485942,1.68960894 8.30485942,2.72055676 L8.30485942,4.00924154 C8.30485942,5.04018937 7.47436433,5.87067512 6.4434049,5.87067512 C5.41244547,5.87067512 4.58195037,5.04018937 4.58195037,4.00924154 Z M1.14541894,11.7413502 C1.15973782,9.92287282 2.63458256,8.44804468 4.46739932,8.44804468 C5.08311121,8.44804468 5.58427204,7.94688949 5.58427204,7.33118454 L5.58427204,6.58661111 C5.85633078,6.67252343 6.1427084,6.72979831 6.4434049,6.72979831 C6.7441014,6.72979831 7.03047902,6.67252343 7.30253776,6.58661111 L7.30253776,7.31686582 C7.30253776,7.93257077 7.80369859,8.43372596 8.41941047,8.43372596 C10.2522272,8.44804468 11.727072,9.92287282 11.7413909,11.7413502 L1.14541894,11.7413502 Z" id="Shape" fill-rule="nonzero"></path>
                    <rect id="Rectangle-3" x="10.9713216" y="2" width="5.52867841" height="1"></rect>
                    <rect id="Rectangle-3" x="10.9713216" y="4" width="5.52867841" height="1"></rect>
                    <rect id="Rectangle-3" x="10.9713216" y="6" width="5.52867841" height="1"></rect>
                </g>
            </g>
        </g>
    </g>
</svg>