<?xml version="1.0" encoding="UTF-8"?>
<svg width="13px" height="7px" viewBox="0 0 13 7" version="1.1" xmlns="http://www.w3.org/2000/svg" xmlns:xlink="http://www.w3.org/1999/xlink">
    <!-- Generator: Sketch 46.2 (44496) - http://www.bohemiancoding.com/sketch -->
    <title>Shape</title>
    <desc>Created with Sketch.</desc>
    <defs></defs>
    <g id="Page-1" stroke="none" stroke-width="1" fill="none" fill-rule="evenodd">
        <g id="richtexteditor" transform="translate(-833.000000, -231.000000)" fill-rule="nonzero" fill="#B1B4C1">
            <g id="text-edit" transform="translate(544.000000, 209.000000)">
                <path d="M298.760741,22 C300.3087,22 301.57,23.2612999 301.57,24.8092588 L301.57,25.3825769 C301.57,26.9305358 300.3087,28.1918357 298.760741,28.1918357 L296.682463,28.1918357 C295.134504,28.1918357 293.873204,26.9305358 293.873204,25.3825769 L293.873204,24.5225997 C293.873204,24.2072747 294.131197,23.9492816 294.446522,23.9492816 C294.761847,23.9492816 295.01984,24.2072747 295.01984,24.5225997 L295.01984,25.3825769 C295.01984,26.2998859 295.765154,27.0451994 296.682463,27.0451994 L298.760741,27.0451994 C299.67805,27.0451994 300.423363,26.2998859 300.423363,25.3825769 L300.423363,24.8092588 C300.423363,23.8919498 299.67805,23.1466362 298.760741,23.1466362 L297.255781,23.1466362 C296.940456,23.1466362 296.682463,22.8886431 296.682463,22.5733181 C296.682463,22.2579932 296.940456,22 297.255781,22 L298.760741,22 Z M293.600878,27.0451994 C293.916203,27.0451994 294.174196,27.3031926 294.174196,27.6185175 C294.174196,27.9338425 293.916203,28.1918357 293.600878,28.1918357 L291.809259,28.1918357 C290.2613,28.1918357 289,26.9305358 289,25.3825769 L289,24.8092588 C289,23.2612999 290.2613,22 291.809259,22 L294.174196,22 C295.722155,22 296.983455,23.2612999 296.983455,24.8092588 L296.983455,25.6692359 C296.983455,25.9845609 296.725462,26.2425541 296.410137,26.2425541 C296.094812,26.2425541 295.836819,25.9845609 295.836819,25.6692359 L295.836819,24.8092588 C295.836819,23.8919498 295.091505,23.1466362 294.174196,23.1466362 L291.809259,23.1466362 C290.89195,23.1466362 290.146636,23.8919498 290.146636,24.8092588 L290.146636,25.3825769 C290.146636,26.2998859 290.89195,27.0451994 291.809259,27.0451994 L293.600878,27.0451994 Z" id="Shape"></path>
            </g>
        </g>
    </g>
</svg>